<svg width="44" height="39" viewBox="0 0 44 39" fill="none" xmlns="http://www.w3.org/2000/svg">
<path d="M22 35.6708C20.6202 34.8933 16.2723 32.3221 12.0157 28.5944C6.91324 24.1258 2.62569 18.5889 2.625 12.9232C2.62826 10.3753 3.64185 7.93269 5.44352 6.13102C7.24519 4.32935 9.68783 3.31576 12.2357 3.3125C15.5378 3.31289 18.3046 4.72049 20.0008 6.97958L22 9.64223L23.9992 6.97958C25.6954 4.72049 28.4622 3.31288 31.7643 3.3125C34.3122 3.31576 36.7548 4.32935 38.5565 6.13102C40.3584 7.93297 41.3721 10.3761 41.375 12.9244L22 35.6708ZM22 35.6708C23.3798 34.8933 27.7277 32.3221 31.9843 28.5944C37.0863 24.1262 41.3736 18.5898 41.375 12.9247L22 35.6708Z" fill="white" stroke="#FC1818" stroke-width="5"/>
</svg>
