<svg width="50" height="50" viewBox="0 0 50 50" fill="none" xmlns="http://www.w3.org/2000/svg">
<path d="M33.4553 19.4574C31.2628 21.3758 28.2256 22.5 25 22.5C21.7744 22.5 18.7372 21.3758 16.5447 19.4574C14.3629 17.5483 13.2143 15.0362 13.2143 12.5C13.2143 9.96375 14.3629 7.45171 16.5447 5.54261C18.7372 3.62418 21.7744 2.5 25 2.5C28.2256 2.5 31.2628 3.62418 33.4553 5.54261C35.6371 7.45171 36.7857 9.96375 36.7857 12.5C36.7857 15.0362 35.6371 17.5483 33.4553 19.4574ZM2.5 47.0996C2.5 39.1643 9.96295 32.1875 19.8996 32.1875H30.1004C40.0371 32.1875 47.5 39.1643 47.5 47.0996C47.5 47.1075 47.4994 47.1182 47.4887 47.1403C47.4764 47.1657 47.4466 47.2131 47.3828 47.2689C47.2516 47.3837 47.0124 47.5 46.6853 47.5H3.31473C2.98758 47.5 2.74838 47.3837 2.61724 47.2689C2.55342 47.2131 2.52356 47.1657 2.51128 47.1403C2.50061 47.1182 2.5 47.1075 2.5 47.0996Z" fill="white" stroke="#FC1818" stroke-width="5"/>
</svg>
