<svg width="58" height="72" viewBox="0 0 58 72" fill="none" xmlns="http://www.w3.org/2000/svg">
<path fill-rule="evenodd" clip-rule="evenodd" d="M27.39 71.2285L27.635 71.3685L27.733 71.4245C28.1216 71.6346 28.5565 71.7447 28.9983 71.7447C29.44 71.7447 29.8749 71.6346 30.2635 71.4245L30.3615 71.372L30.61 71.2285C30.8223 71.1048 31.1198 70.9263 31.5025 70.693C32.262 70.2275 33.3365 69.538 34.6175 68.6315C37.9798 66.2562 41.1215 63.5831 44.0045 60.6445C50.8085 53.6795 57.875 43.2145 57.875 29.75C57.875 22.0919 54.8328 14.7474 49.4177 9.33229C44.0026 3.91718 36.6581 0.875 29 0.875C21.3419 0.875 13.9974 3.91718 8.58229 9.33229C3.16718 14.7474 0.125 22.0919 0.125 29.75C0.125 43.211 7.195 53.6795 13.9955 60.6445C16.8785 63.5831 20.0202 66.2562 23.3825 68.6315C24.683 69.5504 26.02 70.4168 27.39 71.2285ZM29 40.25C31.7848 40.25 34.4555 39.1438 36.4246 37.1746C38.3938 35.2055 39.5 32.5348 39.5 29.75C39.5 26.9652 38.3938 24.2945 36.4246 22.3254C34.4555 20.3562 31.7848 19.25 29 19.25C26.2152 19.25 23.5445 20.3562 21.5754 22.3254C19.6062 24.2945 18.5 26.9652 18.5 29.75C18.5 32.5348 19.6062 35.2055 21.5754 37.1746C23.5445 39.1438 26.2152 40.25 29 40.25Z" fill="#FC1818"/>
</svg>
