<svg width="40" height="40" viewBox="0 0 40 40" fill="none" xmlns="http://www.w3.org/2000/svg">
<path fill-rule="evenodd" clip-rule="evenodd" d="M28.75 17.5C28.75 18.9774 28.459 20.4403 27.8936 21.8052C27.3283 23.1701 26.4996 24.4103 25.4549 25.4549C24.4103 26.4996 23.1701 27.3283 21.8052 27.8936C20.4403 28.459 18.9774 28.75 17.5 28.75C16.0226 28.75 14.5597 28.459 13.1948 27.8936C11.8299 27.3283 10.5897 26.4996 9.54504 25.4549C8.50038 24.4103 7.67171 23.1701 7.10634 21.8052C6.54098 20.4403 6.24999 18.9774 6.24999 17.5C6.24999 14.5163 7.43525 11.6548 9.54504 9.54504C11.6548 7.43525 14.5163 6.24999 17.5 6.24999C20.4837 6.24999 23.3452 7.43525 25.4549 9.54504C27.5647 11.6548 28.75 14.5163 28.75 17.5ZM26.7 29.35C23.6859 31.6899 19.8934 32.7933 16.0945 32.4353C12.2956 32.0774 8.77585 30.2852 6.25186 27.4235C3.72787 24.5618 2.38936 20.8457 2.50882 17.0319C2.62829 13.218 4.19673 9.59301 6.89487 6.89487C9.59301 4.19673 13.218 2.62829 17.0319 2.50882C20.8457 2.38936 24.5618 3.72787 27.4235 6.25186C30.2852 8.77585 32.0774 12.2956 32.4353 16.0945C32.7933 19.8934 31.6899 23.6859 29.35 26.7L36.325 33.675C36.5092 33.8466 36.657 34.0536 36.7594 34.2836C36.8619 34.5136 36.917 34.7619 36.9215 35.0137C36.9259 35.2654 36.8796 35.5155 36.7853 35.749C36.691 35.9825 36.5506 36.1945 36.3726 36.3726C36.1945 36.5506 35.9825 36.691 35.749 36.7853C35.5155 36.8796 35.2654 36.9259 35.0137 36.9215C34.7619 36.917 34.5136 36.8619 34.2836 36.7594C34.0536 36.657 33.8466 36.5092 33.675 36.325L26.7 29.35Z" fill="black"/>
</svg>
