<svg width="30" height="36" viewBox="0 0 30 36" fill="none" xmlns="http://www.w3.org/2000/svg">
<path d="M30 28.6666V30.3333H0V28.6666L3.33333 25.3333V15.3333C3.33333 10.1666 6.71667 5.61665 11.6667 4.14998V3.66665C11.6667 2.78259 12.0179 1.93474 12.643 1.30962C13.2681 0.684502 14.1159 0.333313 15 0.333313C15.8841 0.333313 16.7319 0.684502 17.357 1.30962C17.9821 1.93474 18.3333 2.78259 18.3333 3.66665V4.14998C23.2833 5.61665 26.6667 10.1666 26.6667 15.3333V25.3333L30 28.6666ZM18.3333 32C18.3333 32.884 17.9821 33.7319 17.357 34.357C16.7319 34.9821 15.8841 35.3333 15 35.3333C14.1159 35.3333 13.2681 34.9821 12.643 34.357C12.0179 33.7319 11.6667 32.884 11.6667 32" fill="black"/>
</svg>
